<svg xmlns="http://www.w3.org/2000/svg" fill="none" viewBox="0 0 100 100" height="100" width="100">
<circle fill="#29303A" r="50" cy="50" cx="50"></circle>
<path fill="#FFDA00" d="M34.2506 65.1389C30.2246 61.0784 27.9511 55.5543 27.9984 49.8413C27.9984 44.1282 30.272 38.6041 34.3927 34.5908C37.8978 31.4746 38.2293 26.0921 35.1032 22.5982C31.9771 19.1043 26.5775 18.7738 23.0724 21.89C22.8356 22.126 22.5988 22.3149 22.4093 22.551C7.25239 37.5653 7.20502 61.9755 22.2198 77.0843C25.346 80.5782 30.7456 80.8615 34.2506 77.7453C37.7557 74.6291 38.0399 69.2466 34.9138 65.7527C34.6769 65.5639 34.4875 65.3278 34.2506 65.1389Z"></path>
<path fill="#67B3FF" d="M34.832 34.2662C43.4236 25.8661 57.3428 25.9133 65.8863 34.3606C69.0542 37.9 74.5259 38.2303 78.0777 35.1157C81.6295 32.001 82.0135 26.6212 78.8456 23.129C78.6056 22.893 78.3657 22.6099 78.1257 22.4211C62.9105 7.31974 38.1919 7.17816 22.8327 22.0908C22.7847 22.138 22.7367 22.1851 22.6887 22.2323C19.0889 25.347 18.7529 30.6797 21.9207 34.219C25.0886 37.7584 30.5123 38.0888 34.1121 34.9741C34.3521 34.7382 34.5921 34.5022 34.832 34.2662Z"></path>
<path fill="#EB5A68" d="M65.3678 65.4757C61.2868 69.7111 55.7348 72.0258 49.993 72.0258C44.2512 72.0258 38.6991 69.6618 34.6656 65.3772C31.5337 61.7327 26.1241 61.388 22.6125 64.6384C19.101 67.8889 18.7688 73.5033 21.9008 77.1477C22.138 77.394 22.3278 77.6402 22.5651 77.8372C37.6077 93.597 62.0935 93.7448 77.2785 78.1327C77.326 78.0835 77.326 78.0835 77.3734 78.0342C80.7426 74.5868 80.7426 68.9724 77.4209 65.4757C74.1466 62.0774 68.7369 62.0282 65.3678 65.4757Z"></path>
<path fill="#47A1FF" d="M33.7466 34.8599C30.5643 38.0467 25.3816 38.0467 22.1538 34.8599C18.926 31.6731 18.9715 26.4832 22.1538 23.2509C25.3362 20.0186 30.5188 20.0642 33.7466 23.2509L33.7921 23.2965C36.9744 26.5288 36.929 31.6731 33.7466 34.8599Z"></path>
<path fill="#D5465F" d="M33.7466 77.3542C30.5643 80.7569 25.3816 80.7569 22.1538 77.3542C18.926 73.9514 18.9715 68.4097 22.1538 64.9583C25.3362 61.5556 30.5188 61.5556 33.7466 64.9583L33.7921 65.0069C36.9744 68.4583 36.929 73.9514 33.7466 77.3542Z"></path>
</svg>
