<svg xmlns="http://www.w3.org/2000/svg" fill="none" viewBox="0 0 100 100" height="100" width="100">
<circle fill="#0AB3AF" r="50" cy="50" cx="50"></circle>
<path fill="white" d="M54.7604 50.7498H42.5421V56.4998H54.4667C55.1716 56.4998 55.8177 56.2123 56.3464 55.7523C56.8163 55.2923 57.11 54.6023 57.11 53.7398C57.1271 52.9998 56.9005 52.2741 56.4639 51.6698C55.9939 51.0948 55.4653 50.7498 54.7604 50.7498ZM55.1716 43.7924C55.7002 43.4474 55.9352 42.7 55.9352 41.7225C55.9352 40.86 55.7002 40.2275 55.289 39.825C54.8778 39.48 54.3492 39.25 53.7618 39.25H42.5421V44.4249H53.5268C54.1142 44.4249 54.7016 44.1374 55.1716 43.7924Z"></path>
<path fill="white" d="M74.5999 22H26.7434C25.2193 22 24 23.2157 24 24.6745V72.4508C24 73.9096 25.2193 74.8214 26.6824 74.8214H33.7542V84.3645L42.533 74.8822H74.5999C76.063 74.8822 76.9775 73.9704 76.9775 72.4508V24.7353C76.9775 23.2765 76.063 22.0608 74.5389 22.0608L74.5999 22ZM66.5527 60.7195C65.9431 61.8136 65.0286 62.7254 63.9312 63.394C62.7729 64.1234 61.4927 64.792 60.0296 65.0959C58.5664 65.4606 56.9814 65.7646 55.3354 65.7646H33.7542V31.7255H58.2616C59.4809 31.7255 60.5173 31.9686 61.4927 32.5157C62.4072 33.0019 63.2606 33.6705 63.9312 34.4607C65.297 36.1214 66.0311 38.2094 66.004 40.3568C66.004 41.9372 65.5773 43.4568 64.7847 44.9156C63.9631 46.3829 62.6767 47.5373 61.1269 48.198C63.0778 48.745 64.6018 49.7176 65.7602 51.1156C66.8575 52.5744 67.4062 54.4587 67.4062 56.8293C67.4062 58.3489 67.1014 59.6254 66.4917 60.7195H66.5527Z"></path>
</svg>
